<?xml version="1.0" encoding="UTF-8" standalone="no"?>
<svg
   width="16"
   height="16"
   fill="currentColor"
   class="bi bi-trash-fill"
   viewBox="0 0 16 16"
   version="1.1"
   id="svg4"
   sodipodi:docname="DeleteBtn.svg"
   inkscape:version="1.2.2 (732a01da63, 2022-12-09)"
   xmlns:inkscape="http://www.inkscape.org/namespaces/inkscape"
   xmlns:sodipodi="http://sodipodi.sourceforge.net/DTD/sodipodi-0.dtd"
   xmlns="http://www.w3.org/2000/svg"
   xmlns:svg="http://www.w3.org/2000/svg">
  <defs
     id="defs8" />
  <sodipodi:namedview
     id="namedview6"
     pagecolor="#ffffff"
     bordercolor="#000000"
     borderopacity="0.25"
     inkscape:showpageshadow="2"
     inkscape:pageopacity="0.0"
     inkscape:pagecheckerboard="0"
     inkscape:deskcolor="#d1d1d1"
     showgrid="false"
     inkscape:zoom="35.3125"
     inkscape:cx="5.9185841"
     inkscape:cy="4.5876106"
     inkscape:window-width="1366"
     inkscape:window-height="745"
     inkscape:window-x="-8"
     inkscape:window-y="-8"
     inkscape:window-maximized="1"
     inkscape:current-layer="svg4" />
  <path
     d="m 2.5,1.339823 a 1,1 0 0 0 -1,1 v 1 a 1,1 0 0 0 1,1 H 3 v 9 a 2,2 0 0 0 2,2 h 6 a 2,2 0 0 0 2,-2 v -9 h 0.5 a 1,1 0 0 0 1,-1 v -1 a 1,1 0 0 0 -1,-1 H 10 A 1,1 0 0 0 9,0.33982301 H 7 A 1,1 0 0 0 6,1.339823 Z m 3,4 a 0.5,0.5 0 0 1 0.5,0.5 v 7 a 0.5,0.5 0 0 1 -1,0 v -7 a 0.5,0.5 0 0 1 0.5,-0.5 z m 2.5,0 a 0.5,0.5 0 0 1 0.5,0.5 v 7 a 0.5,0.5 0 0 1 -1,0 v -7 a 0.5,0.5 0 0 1 0.5,-0.5 z m 3,0.5 v 7 a 0.5,0.5 0 0 1 -1,0 v -7 a 0.5,0.5 0 0 1 1,0 z"
     id="path2"
     style="fill:#ffffff;fill-opacity:1;stroke:none;stroke-width:0.7;stroke-dasharray:none;stroke-opacity:1" />
</svg>
