<?xml version="1.0" encoding="UTF-8" standalone="no"?>
<svg
   width="16"
   height="16"
   fill="currentColor"
   class="bi bi-pencil-fill"
   viewBox="0 0 16 16"
   version="1.1"
   id="svg4"
   sodipodi:docname="EditBtn.svg"
   inkscape:version="1.2.2 (732a01da63, 2022-12-09)"
   xmlns:inkscape="http://www.inkscape.org/namespaces/inkscape"
   xmlns:sodipodi="http://sodipodi.sourceforge.net/DTD/sodipodi-0.dtd"
   xmlns="http://www.w3.org/2000/svg"
   xmlns:svg="http://www.w3.org/2000/svg">
  <defs
     id="defs8" />
  <sodipodi:namedview
     id="namedview6"
     pagecolor="#ffffff"
     bordercolor="#000000"
     borderopacity="0.25"
     inkscape:showpageshadow="2"
     inkscape:pageopacity="0.0"
     inkscape:pagecheckerboard="0"
     inkscape:deskcolor="#d1d1d1"
     showgrid="false"
     inkscape:zoom="17.65625"
     inkscape:cx="-4.6159292"
     inkscape:cy="13.366372"
     inkscape:window-width="1366"
     inkscape:window-height="745"
     inkscape:window-x="-8"
     inkscape:window-y="-8"
     inkscape:window-maximized="1"
     inkscape:current-layer="svg4" />
  <path
     d="m 12.793972,0.24272546 a 0.49380279,0.49381809 0 0 0 -0.698236,0 L 10.469149,1.8693622 14.130203,5.5305296 15.75679,3.9048805 a 0.49380279,0.49381809 0 0 0 0,-0.6992465 z M 13.431966,6.2287884 9.7709123,2.567621 3.3514759,8.9872562 H 3.5559103 A 0.49380279,0.49381809 0 0 1 4.0497131,9.4810743 V 9.9748922 H 4.5435158 A 0.49380279,0.49381809 0 0 1 5.0373187,10.46871 v 0.493818 h 0.4938028 a 0.49380279,0.49381809 0 0 1 0.4938027,0.493818 v 0.493818 h 0.4938029 a 0.49380279,0.49381809 0 0 1 0.4938028,0.493819 v 0.204441 z M 6.0565276,13.604456 A 0.49380279,0.49381809 0 0 1 6.0249242,13.431619 V 12.937801 H 5.5311215 A 0.49380279,0.49381809 0 0 1 5.0373187,12.443983 V 11.950164 H 4.5435158 A 0.49380279,0.49381809 0 0 1 4.0497131,11.456346 V 10.962528 H 3.5559103 A 0.49380279,0.49381809 0 0 1 3.0621075,10.46871 V 9.9748922 H 2.5683047 A 0.49281519,0.49283046 0 0 1 2.3954737,9.9432907 L 2.2186924,10.119087 a 0.49380279,0.49381809 0 0 0 -0.1086367,0.165924 l -1.97521115,4.93818 a 0.49380279,0.49381809 0 0 0 0.64194363,0.641963 L 5.7148161,13.889882 a 0.49380279,0.49381809 0 0 0 0.1659177,-0.10864 l 0.1757938,-0.175799 z"
     id="path2"
     style="fill:#ffffff;fill-opacity:1;stroke:none;stroke-width:0.197525;stroke-dasharray:none;stroke-opacity:1" />
</svg>
